<?xml version="1.0" encoding="utf-8"?>
<!-- Generator: Adobe Illustrator 18.1.1, SVG Export Plug-In . SVG Version: 6.00 Build 0)  -->
<svg version="1.1" id="Layer_1" xmlns="http://www.w3.org/2000/svg" xmlns:xlink="http://www.w3.org/1999/xlink" x="0px" y="0px"
	 viewBox="652.3 -18.3 431.3 319.7" enable-background="new 652.3 -18.3 431.3 319.7" xml:space="preserve">
<path id="logoline" d="M884.4-3.1c-7.4,23-7.3,23-6.1,24.2c1.6,1.6,2.2,1.5,16-2.9
	c6.8-2.2,13-4,13.6-4c0.8,0,1.1,6.2,1.1,21.1v21l-14.3-7.5c-20.2-10.7-19.9-11.6-8.6,22.2c5.2,15.6,8.9,28.4,8.9,30.7
	c0,24.1-29.1,36.5-46,19.6c-5.2-5.2-8-11.8-8-18.9c0-2.8,3-13.7,8.5-30.4c4.7-14.3,8.5-26.6,8.5-27.2c0-0.7-0.5-1.7-1.2-2.4
	c-0.9-0.9-4.4,0.5-15.5,6.3L827,56.2v-21c0-13.9,0.4-21,1-21c0.6,0,6.6,1.8,13.4,4c14,4.6,15.2,4.7,16.1,2
	c0.5-1.5-6.6-26.3-10.2-35.7c-0.4-1,3.5-1.3,20.5-1.3h21L884.4-3.1z M752.5,40.1c5.3,2.4,11.1,9,12.6,14.3
	c4,14.8-6.6,28.8-21.9,28.8c-7.7,0-12.5-2.2-17.5-8.1c-9.9-11.5-5.5-29.3,8.8-35.5C738.9,37.7,747.8,37.9,752.5,40.1z M1002.6,40.6
	c14.7,6.8,17.4,26.5,5,37.3c-4.6,4.2-9.6,5.6-17.2,5.1c-8.2-0.5-13.6-4.1-17.6-11.7C962.6,51.8,982.5,31.2,1002.6,40.6z M811.1,58.9
	c18.4,9.4,16.1,36.1-3.7,41.9c-14,4.1-27.6-5.2-29.1-19.9c-0.4-4.2-0.1-6.4,1.6-10.3c2.9-6.4,5.5-9.2,11.6-12
	C798.3,55.4,804.2,55.5,811.1,58.9z M946.6,59.8c3,1.8,6,4.8,7.9,7.8c2.5,4.2,3,5.9,3,11.5c0,5.4-0.5,7.4-2.8,11.4
	c-11.3,19.1-40.1,12.6-42.4-9.6c-1-9.7,5.5-19.8,14.9-23.4C932.7,55.4,941.2,56.4,946.6,59.8z M698.1,69.4c5.2,1.5,11.7,7.3,14,12.2
	c1,2.3,1.9,6.4,1.9,9.4c0.1,23.5-31.2,31.7-42.5,11.1C661.8,84.2,678.7,63.5,698.1,69.4z M1051.1,69.4c5.2,1.5,11.7,7.3,14,12.2
	c2.4,5.3,2.4,13.9,0,19.2c-1,2.2-3.7,5.7-6.1,7.7c-14.6,12.5-37,2-37-17.3C1022,75.7,1036.4,64.9,1051.1,69.4z M685.5,128.1
	c16.6,7.5,18,30.5,2.5,39.8s-34.5-1.3-34.4-19.2c0.1-9.4,5.3-17.3,13.9-21.1C671.9,125.7,680.8,125.9,685.5,128.1z M1068.3,127.5
	c15.1,6.4,18.8,26.7,7,37.9c-4,3.9-9.4,5.8-16,5.8c-22.6-0.1-30.7-30.1-11.3-41.8c4.5-2.6,6.4-3.2,11.2-3.2
	C1062.4,126.2,1066.5,126.8,1068.3,127.5z M766.8,142.6c13,13.4,16.5,25.5,12.3,42.8c-1.1,4.8-2.7,10.4-3.6,12.4l-1.5,3.6l2.3-1.6
	c14.8-10.9,29.2-4.8,29.2,12.4c0,3.6-0.4,7.4-0.8,8.4c-0.7,1.8-1,1.7-4-1.2c-8.1-7.8-16.8-5.4-19.6,5.5
	c-4.5,16.9,13.6,31.8,38.4,31.7c26.2-0.1,39.3-12.7,40.7-39.4l0.3-5.5l-3.9,0.2c-7.8,0.5-19.5,8.3-27.5,18.4
	c-2.2,2.8-4.1,4.8-4.1,4.3s-0.9-10.8-2-22.9c-1.1-12.1-2-23.4-2-25.2v-3.2l7.2,5.4c4.1,3.1,9.9,6.4,13.3,7.5
	c6.3,2.2,18.5,3.8,18.5,2.5c0-2.3-8-15.3-14.7-23.9c-4.3-5.4-8.4-10.7-9.2-11.7c-1.3-1.8-0.4-1.9,31.9-1.9c26.5,0,33,0.3,32.3,1.2
	c-0.6,0.7-3.9,4.9-7.4,9.3c-6.8,8.5-15.2,21.5-16.4,25.2c-0.6,2.1-0.3,2.3,3.2,2.3c9.2,0,20.1-4.3,29.6-11.7
	c6.8-5.3,6.4-7.8,3.7,22.2c-1.1,12.1-2,22.9-2,24c0,1.5-0.7,1.1-3.2-2c-8.5-10.7-20-18.7-28.7-20.1l-4.3-0.7l0.7,6.9
	c2.1,21.8,8.9,31.7,24.8,36.6c5.1,1.5,9.9,2.2,16.2,2.2c15.4,0,26.9-4.8,34.9-14.7c2.7-3.3,3.1-4.8,3.4-11c0.3-6.3,0.1-7.7-2-10.7
	c-4.7-7-11.2-7.3-17.3-1c-1.6,1.7-3.2,3-3.6,3c-1.2,0-2.2-10.5-1.4-15.1c1.1-6.4,6.7-11.9,12.7-12.6c5.7-0.7,11,1,15.3,4.8l3.3,2.9
	l-3-9.2c-5.4-16.6-4.7-29.2,2-40.8c2.6-4.3,14.7-17,16.3-17c1.3,0,7.9,11.6,10.2,17.8c1.5,4,2.1,8.1,2.1,13.9
	c0,7.6-0.3,8.8-4.2,16.6c-2.3,4.7-6.2,10.7-8.7,13.5c-2.5,2.7-4.5,5.3-4.5,5.6s1.2,0.1,2.6-0.4c4.5-1.7,11.8-1.2,16.4,1.3
	c7.6,4,9.9,12.5,6.3,23.6c-1.7,5.4-2.8,6.3-3.7,3.3c-1.1-3.2-7.1-8.3-10.7-8.8c-7.3-1.2-14,7-14,16.9c0,9.2,6.1,17.9,14.6,20.7
	c5.2,1.7,14.1,0.8,20-2c6.9-3.3,16-13,22.3-23.6l5.3-8.9l-2.6-0.3c-2.7-0.4-13.4,4.2-18.6,7.8c-1.6,1.2-2.9,2-2.9,1.7
	c0-0.4,13.8-46.5,14.4-48.2c0.2-0.6,0.7-0.1,1.1,1c4.3,11.3,6.3,15.8,9.3,20.5l3.6,5.5l1.4-4.5c1.3-4.4,1.2-16.4-0.4-25.3l-0.7-3.7
	l14.4,5c7.9,2.8,14.8,5.5,15.2,5.9c0.5,0.5-1.8,4.9-5.1,9.8c-14.3,21.9-26.7,51.9-36.1,87.8l-2.8,11l-4.9-0.2
	c-2.7,0-13-1.1-22.9-2.2c-80.4-9.3-174-9.1-254.9,0.4c-11.5,1.4-21.6,2.5-22.5,2.5c-1.2,0-2.2-2.5-4-9.8
	c-3.4-14.2-14.2-46-19.9-58.7c-5.6-12.6-12.5-25.2-18.8-34.3c-2.9-4.1-4-6.4-3.1-6.7c0.6-0.2,7.5-2.7,15.2-5.4
	c7.7-2.8,14.1-4.8,14.3-4.6c0.2,0.1-0.1,2.9-0.7,6.1c-1.4,7.4-1.4,17.8,0,22.8l1.1,4l1.9-2.5c3-3.7,7.5-12.8,9.5-19.2
	c1-3.1,2.1-5.4,2.5-5c0.4,0.5,3.7,10.9,7.4,23.2c3.7,12.4,6.9,23,7.2,23.7c0.3,0.7-3-0.7-7.3-3.1c-7.4-4.2-12.9-6.2-15.3-5.4
	c-2,0.7,8.3,17.1,14.9,23.9c8.2,8.4,15.2,12,23.2,12c9.8,0,17.1-4.4,20.9-12.5c5.6-12-2.1-28-12.6-26.1c-3.4,0.7-7.8,4.2-10.6,8.5
	l-1.6,2.5l-1.6-4.9c-2.4-6.8-2.2-15.2,0.3-19.3c3.6-5.8,15.1-9,22.4-6.2c2.2,0.8,1.5-0.4-3.8-7.4c-8.5-11.2-11-17.6-11-28.6
	c0-6.8,0.5-9.7,2.6-14.7c2.7-6.6,8.5-16.3,9.7-16.3C759.3,135.2,762.9,138.5,766.8,142.6z"/>
</svg>
