<?xml version="1.0" standalone="no"?>
<!DOCTYPE svg PUBLIC "-//W3C//DTD SVG 20010904//EN"
 "http://www.w3.org/TR/2001/REC-SVG-20010904/DTD/svg10.dtd">
<svg version="1.0" xmlns="http://www.w3.org/2000/svg"
 width="1200.000000pt" height="630.000000pt" viewBox="0 0 1200.000000 630.000000"
 preserveAspectRatio="xMidYMid meet">
<metadata>
Created by potrace 1.11, written by Peter Selinger 2001-2013
</metadata>
<g transform="translate(0.000000,630.000000) scale(0.100000,-0.100000)" fill="white" stroke="black" stroke-width="2">
<path d="M0 3150 l0 -3150 6000 0 6000 0 0 3150 0 3150 -6000 0 -6000 0 0
-3150z m6164 2243 c-74 -230 -73 -230 -61 -242 16 -16 22 -15 160 29 68 22
130 40 136 40 8 0 11 -62 11 -211 l0 -210 -143 75 c-202 107 -199 116 -86
-222 52 -156 89 -284 89 -307 0 -241 -291 -365 -460 -196 -52 52 -80 118 -80
189 0 28 30 137 85 304 47 143 85 266 85 272 0 7 -5 17 -12 24 -9 9 -44 -5
-155 -63 l-143 -75 0 210 c0 139 4 210 10 210 6 0 66 -18 134 -40 140 -46 152
-47 161 -20 5 15 -66 263 -102 357 -4 10 35 13 205 13 l210 0 -44 -137z
m-1319 -432 c53 -24 111 -90 126 -143 40 -148 -66 -288 -219 -288 -77 0 -125
22 -175 81 -99 115 -55 293 88 355 44 19 133 17 180 -5z m2501 -5 c147 -68
174 -265 50 -373 -46 -42 -96 -56 -172 -51 -82 5 -136 41 -176 117 -102 195
97 401 298 307z m-1915 -183 c184 -94 161 -361 -37 -419 -140 -41 -276 52
-291 199 -4 42 -1 64 16 103 29 64 55 92 116 120 68 32 127 31 196 -3z m1355
-9 c30 -18 60 -48 79 -78 25 -42 30 -59 30 -115 0 -54 -5 -74 -28 -114 -113
-191 -401 -126 -424 96 -10 97 55 198 149 234 55 21 140 11 194 -23z m-2485
-96 c52 -15 117 -73 140 -122 10 -23 19 -64 19 -94 1 -235 -312 -317 -425
-111 -97 179 72 386 266 327z m3530 0 c52 -15 117 -73 140 -122 24 -53 24
-139 0 -192 -10 -22 -37 -57 -61 -77 -146 -125 -370 -20 -370 173 0 155 144
263 291 218z m-3656 -587 c166 -75 180 -305 25 -398 -155 -93 -345 13 -344
192 1 94 53 173 139 211 44 19 133 17 180 -5z m3828 6 c151 -64 188 -267 70
-379 -40 -39 -94 -58 -160 -58 -226 1 -307 301 -113 418 45 26 64 32 112 32
32 0 73 -6 91 -13z m-3015 -151 c130 -134 165 -255 123 -428 -11 -48 -27 -104
-36 -124 l-15 -36 23 16 c148 109 292 48 292 -124 0 -36 -4 -74 -8 -84 -7 -18
-10 -17 -40 12 -81 78 -168 54 -196 -55 -45 -169 136 -318 384 -317 262 1 393
127 407 394 l3 55 -39 -2 c-78 -5 -195 -83 -275 -184 -22 -28 -41 -48 -41 -43
0 5 -9 108 -20 229 -11 121 -20 234 -20 252 l0 32 72 -54 c41 -31 99 -64 133
-75 63 -22 185 -38 185 -25 0 23 -80 153 -147 239 -43 54 -84 107 -92 117 -13
18 -4 19 319 19 265 0 330 -3 323 -12 -6 -7 -39 -49 -74 -93 -68 -85 -152
-215 -164 -252 -6 -21 -3 -23 32 -23 92 0 201 43 296 117 68 53 64 78 37 -222
-11 -121 -20 -229 -20 -240 0 -15 -7 -11 -32 20 -85 107 -200 187 -287 201
l-43 7 7 -69 c21 -218 89 -317 248 -366 51 -15 99 -22 162 -22 154 0 269 48
349 147 27 33 31 48 34 110 3 63 1 77 -20 107 -47 70 -112 73 -173 10 -16 -17
-32 -30 -36 -30 -12 0 -22 105 -14 151 11 64 67 119 127 126 57 7 110 -10 153
-48 l33 -29 -30 92 c-54 166 -47 292 20 408 26 43 147 170 163 170 13 0 79
-116 102 -178 15 -40 21 -81 21 -139 0 -76 -3 -88 -42 -166 -23 -47 -62 -107
-87 -135 -25 -27 -45 -53 -45 -56 0 -3 12 -1 26 4 45 17 118 12 164 -13 76
-40 99 -125 63 -236 -17 -54 -28 -63 -37 -33 -11 32 -71 83 -107 88 -73 12
-140 -70 -140 -169 0 -92 61 -179 146 -207 52 -17 141 -8 200 20 69 33 160
130 223 236 l53 89 -26 3 c-27 4 -134 -42 -186 -78 -16 -12 -29 -20 -29 -17 0
4 138 465 144 482 2 6 7 1 11 -10 43 -113 63 -158 93 -205 l36 -55 14 45 c13
44 12 164 -4 253 l-7 37 144 -50 c79 -28 148 -55 152 -59 5 -5 -18 -49 -51
-98 -143 -219 -267 -519 -361 -878 l-28 -110 -49 2 c-27 0 -130 11 -229 22
-804 93 -1740 91 -2549 -4 -115 -14 -216 -25 -225 -25 -12 0 -22 25 -40 98
-34 142 -142 460 -199 587 -56 126 -125 252 -188 343 -29 41 -40 64 -31 67 6
2 75 27 152 54 77 28 141 48 143 46 2 -1 -1 -29 -7 -61 -14 -74 -14 -178 0
-228 l11 -40 19 25 c30 37 75 128 95 192 10 31 21 54 25 50 4 -5 37 -109 74
-232 37 -124 69 -230 72 -237 3 -7 -30 7 -73 31 -74 42 -129 62 -153 54 -20
-7 83 -171 149 -239 82 -84 152 -120 232 -120 98 0 171 44 209 125 56 120 -21
280 -126 261 -34 -7 -78 -42 -106 -85 l-16 -25 -16 49 c-24 68 -22 152 3 193
36 58 151 90 224 62 22 -8 15 4 -38 74 -85 112 -110 176 -110 286 0 68 5 97
26 147 27 66 85 163 97 163 4 0 40 -33 79 -74z m-455 -2253 c62 -29 125 -82
147 -122 9 -18 4 -23 -37 -47 -27 -15 -59 -34 -72 -42 -22 -13 -25 -13 -34 4
-69 125 -249 137 -338 24 -30 -37 -59 -131 -59 -190 0 -59 29 -153 59 -190 56
-71 157 -99 238 -65 63 27 93 64 106 133 l7 32 -105 0 -105 0 0 65 0 65 185 0
185 0 0 -220 0 -220 -75 0 -75 0 0 40 0 40 -44 -34 c-88 -67 -225 -74 -341
-17 -106 52 -163 135 -192 277 -36 177 29 352 162 441 76 50 132 64 237 59 70
-3 98 -9 151 -33z m768 17 c163 -51 259 -196 259 -390 0 -255 -171 -424 -411
-407 -186 12 -317 136 -350 330 -14 84 0 197 35 273 79 172 276 254 467 194z
m549 -287 c41 -161 77 -293 80 -293 3 0 39 133 80 295 l75 295 87 0 c64 0 88
-3 88 -13 0 -6 -49 -185 -110 -397 -60 -212 -110 -386 -110 -387 0 -2 -51 -3
-112 -3 l-113 0 -109 388 c-60 213 -111 393 -114 400 -3 10 16 12 89 10 l93
-3 76 -292z m860 19 c0 -319 2 -329 81 -370 80 -42 169 -21 223 52 20 26 21
43 24 312 l3 284 80 0 80 0 -3 -302 c-3 -289 -4 -305 -25 -343 -53 -98 -147
-154 -273 -162 -153 -11 -279 54 -331 169 -23 51 -24 63 -27 346 l-4 292 86 0
86 0 0 -278z m780 107 l0 -172 141 172 142 171 100 0 c94 0 99 -1 85 -17 -8
-10 -63 -74 -123 -143 -60 -69 -115 -133 -123 -142 -13 -16 -1 -41 128 -250
79 -128 145 -236 147 -240 2 -5 -38 -8 -90 -8 l-95 0 -103 175 c-57 96 -106
175 -110 175 -4 0 -28 -24 -53 -54 l-46 -53 0 -122 0 -121 -85 0 -85 0 0 400
0 400 85 0 85 0 0 -171z m-1064 -463 c26 -26 34 -42 34 -71 0 -29 -8 -45 -34
-71 -58 -58 -140 -38 -166 41 -10 30 -9 41 7 72 34 71 105 83 159 29z"/>
</g>
</svg>
